<mxfile host="app.diagrams.net" modified="2023-11-26T20:31:02.883Z" agent="Mozilla/5.0 (Windows NT 10.0; Win64; x64) AppleWebKit/537.36 (KHTML, like Gecko) Chrome/119.0.0.0 Safari/537.36" etag="pcX5hTfDqd3KVSkjHi11" version="22.1.4" type="device">
  <diagram name="Page-1" id="QqZ3z7UyCkMaWOow5lyq">
    <mxGraphModel dx="1434" dy="780" grid="1" gridSize="10" guides="1" tooltips="1" connect="1" arrows="1" fold="1" page="1" pageScale="1" pageWidth="850" pageHeight="1100" math="0" shadow="0">
      <root>
        <mxCell id="0" />
        <mxCell id="1" parent="0" />
        <mxCell id="OQI-8AytWeG916KqfT5z-4" value="demand" style="rounded=0;whiteSpace=wrap;html=1;" parent="1" vertex="1">
          <mxGeometry x="90" y="80" width="410" height="270" as="geometry" />
        </mxCell>
        <mxCell id="UQ66UnljShzMkNX9xTJd-2" value="shipment" style="rounded=1;whiteSpace=wrap;html=1;" parent="1" vertex="1">
          <mxGeometry x="380" y="80" width="120" height="60" as="geometry" />
        </mxCell>
        <mxCell id="UQ66UnljShzMkNX9xTJd-3" value="shipment" style="rounded=1;whiteSpace=wrap;html=1;" parent="1" vertex="1">
          <mxGeometry x="380" y="150" width="120" height="60" as="geometry" />
        </mxCell>
        <mxCell id="UQ66UnljShzMkNX9xTJd-4" value="shipment" style="rounded=1;whiteSpace=wrap;html=1;" parent="1" vertex="1">
          <mxGeometry x="380" y="220" width="120" height="60" as="geometry" />
        </mxCell>
        <mxCell id="UQ66UnljShzMkNX9xTJd-5" value="shipment" style="rounded=1;whiteSpace=wrap;html=1;" parent="1" vertex="1">
          <mxGeometry x="380" y="290" width="120" height="60" as="geometry" />
        </mxCell>
        <mxCell id="UQ66UnljShzMkNX9xTJd-6" value="shipment" style="rounded=0;whiteSpace=wrap;html=1;" parent="1" vertex="1">
          <mxGeometry x="90" y="360" width="410" height="240" as="geometry" />
        </mxCell>
        <mxCell id="UQ66UnljShzMkNX9xTJd-10" value="invoice" style="rounded=1;whiteSpace=wrap;html=1;" parent="1" vertex="1">
          <mxGeometry x="380" y="360" width="120" height="60" as="geometry" />
        </mxCell>
        <mxCell id="UQ66UnljShzMkNX9xTJd-13" value="invoice" style="rounded=1;whiteSpace=wrap;html=1;" parent="1" vertex="1">
          <mxGeometry x="380" y="420" width="120" height="60" as="geometry" />
        </mxCell>
        <mxCell id="UQ66UnljShzMkNX9xTJd-17" value="invoice" style="rounded=0;whiteSpace=wrap;html=1;" parent="1" vertex="1">
          <mxGeometry x="90" y="610" width="410" height="240" as="geometry" />
        </mxCell>
        <mxCell id="UQ66UnljShzMkNX9xTJd-25" value="document" style="rounded=1;whiteSpace=wrap;html=1;" parent="1" vertex="1">
          <mxGeometry x="380" y="610" width="120" height="60" as="geometry" />
        </mxCell>
        <mxCell id="SfMgs8U5jTcHFlzyxPl0-2" value="document" style="rounded=1;whiteSpace=wrap;html=1;" vertex="1" parent="1">
          <mxGeometry x="380" y="670" width="120" height="60" as="geometry" />
        </mxCell>
        <mxCell id="SfMgs8U5jTcHFlzyxPl0-3" value="document" style="rounded=1;whiteSpace=wrap;html=1;" vertex="1" parent="1">
          <mxGeometry x="380" y="730" width="120" height="60" as="geometry" />
        </mxCell>
        <mxCell id="SfMgs8U5jTcHFlzyxPl0-4" value="document" style="rounded=1;whiteSpace=wrap;html=1;" vertex="1" parent="1">
          <mxGeometry x="380" y="790" width="120" height="60" as="geometry" />
        </mxCell>
        <mxCell id="SfMgs8U5jTcHFlzyxPl0-8" value="demand" style="rounded=1;whiteSpace=wrap;html=1;" vertex="1" parent="1">
          <mxGeometry x="560" y="80" width="120" height="60" as="geometry" />
        </mxCell>
        <mxCell id="SfMgs8U5jTcHFlzyxPl0-22" style="edgeStyle=orthogonalEdgeStyle;rounded=0;orthogonalLoop=1;jettySize=auto;html=1;entryX=0;entryY=0.5;entryDx=0;entryDy=0;exitX=0.5;exitY=0;exitDx=0;exitDy=0;fillColor=#dae8fc;strokeColor=#6c8ebf;" edge="1" parent="1" source="SfMgs8U5jTcHFlzyxPl0-9" target="SfMgs8U5jTcHFlzyxPl0-10">
          <mxGeometry relative="1" as="geometry">
            <Array as="points">
              <mxPoint x="620" y="170" />
              <mxPoint x="790" y="170" />
              <mxPoint x="790" y="110" />
            </Array>
          </mxGeometry>
        </mxCell>
        <mxCell id="SfMgs8U5jTcHFlzyxPl0-23" style="edgeStyle=orthogonalEdgeStyle;rounded=0;orthogonalLoop=1;jettySize=auto;html=1;entryX=0.5;entryY=1;entryDx=0;entryDy=0;fillColor=#dae8fc;strokeColor=#6c8ebf;" edge="1" parent="1" source="SfMgs8U5jTcHFlzyxPl0-9" target="SfMgs8U5jTcHFlzyxPl0-8">
          <mxGeometry relative="1" as="geometry" />
        </mxCell>
        <mxCell id="SfMgs8U5jTcHFlzyxPl0-9" value="invoice" style="rounded=1;whiteSpace=wrap;html=1;" vertex="1" parent="1">
          <mxGeometry x="560" y="190" width="120" height="60" as="geometry" />
        </mxCell>
        <mxCell id="SfMgs8U5jTcHFlzyxPl0-18" style="edgeStyle=orthogonalEdgeStyle;rounded=0;orthogonalLoop=1;jettySize=auto;html=1;entryX=0.5;entryY=0;entryDx=0;entryDy=0;" edge="1" parent="1" source="SfMgs8U5jTcHFlzyxPl0-10" target="SfMgs8U5jTcHFlzyxPl0-13">
          <mxGeometry relative="1" as="geometry">
            <Array as="points">
              <mxPoint x="980" y="110" />
              <mxPoint x="980" y="280" />
              <mxPoint x="760" y="280" />
            </Array>
          </mxGeometry>
        </mxCell>
        <mxCell id="SfMgs8U5jTcHFlzyxPl0-26" style="edgeStyle=orthogonalEdgeStyle;rounded=0;orthogonalLoop=1;jettySize=auto;html=1;entryX=0.5;entryY=0;entryDx=0;entryDy=0;exitX=0.5;exitY=0;exitDx=0;exitDy=0;" edge="1" parent="1" source="SfMgs8U5jTcHFlzyxPl0-10" target="SfMgs8U5jTcHFlzyxPl0-8">
          <mxGeometry relative="1" as="geometry" />
        </mxCell>
        <mxCell id="SfMgs8U5jTcHFlzyxPl0-10" value="shipment" style="rounded=1;whiteSpace=wrap;html=1;" vertex="1" parent="1">
          <mxGeometry x="840" y="80" width="120" height="60" as="geometry" />
        </mxCell>
        <mxCell id="SfMgs8U5jTcHFlzyxPl0-19" style="edgeStyle=orthogonalEdgeStyle;rounded=0;orthogonalLoop=1;jettySize=auto;html=1;entryX=0.5;entryY=1;entryDx=0;entryDy=0;fillColor=#f8cecc;strokeColor=#b85450;" edge="1" parent="1" source="SfMgs8U5jTcHFlzyxPl0-11" target="SfMgs8U5jTcHFlzyxPl0-10">
          <mxGeometry relative="1" as="geometry" />
        </mxCell>
        <mxCell id="SfMgs8U5jTcHFlzyxPl0-20" style="edgeStyle=orthogonalEdgeStyle;rounded=0;orthogonalLoop=1;jettySize=auto;html=1;entryX=1;entryY=0.5;entryDx=0;entryDy=0;fillColor=#f8cecc;strokeColor=#b85450;" edge="1" parent="1" source="SfMgs8U5jTcHFlzyxPl0-11" target="SfMgs8U5jTcHFlzyxPl0-9">
          <mxGeometry relative="1" as="geometry" />
        </mxCell>
        <mxCell id="SfMgs8U5jTcHFlzyxPl0-21" style="edgeStyle=orthogonalEdgeStyle;rounded=0;orthogonalLoop=1;jettySize=auto;html=1;entryX=1;entryY=0.5;entryDx=0;entryDy=0;fillColor=#f8cecc;strokeColor=#b85450;" edge="1" parent="1" source="SfMgs8U5jTcHFlzyxPl0-11" target="SfMgs8U5jTcHFlzyxPl0-8">
          <mxGeometry relative="1" as="geometry" />
        </mxCell>
        <mxCell id="SfMgs8U5jTcHFlzyxPl0-11" value="document" style="rounded=1;whiteSpace=wrap;html=1;" vertex="1" parent="1">
          <mxGeometry x="840" y="190" width="120" height="60" as="geometry" />
        </mxCell>
        <mxCell id="SfMgs8U5jTcHFlzyxPl0-40" style="edgeStyle=orthogonalEdgeStyle;rounded=0;orthogonalLoop=1;jettySize=auto;html=1;entryX=0;entryY=0.5;entryDx=0;entryDy=0;exitX=0;exitY=0.5;exitDx=0;exitDy=0;" edge="1" parent="1" source="SfMgs8U5jTcHFlzyxPl0-15" target="SfMgs8U5jTcHFlzyxPl0-37">
          <mxGeometry relative="1" as="geometry" />
        </mxCell>
        <mxCell id="SfMgs8U5jTcHFlzyxPl0-13" value="Articles" style="swimlane;fontStyle=0;childLayout=stackLayout;horizontal=1;startSize=30;horizontalStack=0;resizeParent=1;resizeParentMax=0;resizeLast=0;collapsible=1;marginBottom=0;whiteSpace=wrap;html=1;" vertex="1" parent="1">
          <mxGeometry x="690" y="300" width="140" height="120" as="geometry" />
        </mxCell>
        <mxCell id="SfMgs8U5jTcHFlzyxPl0-14" value="article 1" style="text;strokeColor=none;fillColor=none;align=left;verticalAlign=middle;spacingLeft=4;spacingRight=4;overflow=hidden;points=[[0,0.5],[1,0.5]];portConstraint=eastwest;rotatable=0;whiteSpace=wrap;html=1;" vertex="1" parent="SfMgs8U5jTcHFlzyxPl0-13">
          <mxGeometry y="30" width="140" height="30" as="geometry" />
        </mxCell>
        <mxCell id="SfMgs8U5jTcHFlzyxPl0-15" value="article 2" style="text;strokeColor=none;fillColor=none;align=left;verticalAlign=middle;spacingLeft=4;spacingRight=4;overflow=hidden;points=[[0,0.5],[1,0.5]];portConstraint=eastwest;rotatable=0;whiteSpace=wrap;html=1;" vertex="1" parent="SfMgs8U5jTcHFlzyxPl0-13">
          <mxGeometry y="60" width="140" height="30" as="geometry" />
        </mxCell>
        <mxCell id="SfMgs8U5jTcHFlzyxPl0-16" value="article 3" style="text;strokeColor=none;fillColor=none;align=left;verticalAlign=middle;spacingLeft=4;spacingRight=4;overflow=hidden;points=[[0,0.5],[1,0.5]];portConstraint=eastwest;rotatable=0;whiteSpace=wrap;html=1;" vertex="1" parent="SfMgs8U5jTcHFlzyxPl0-13">
          <mxGeometry y="90" width="140" height="30" as="geometry" />
        </mxCell>
        <mxCell id="SfMgs8U5jTcHFlzyxPl0-27" value="demand" style="rounded=0;whiteSpace=wrap;html=1;" vertex="1" parent="1">
          <mxGeometry x="1030" y="80" width="400" height="240" as="geometry" />
        </mxCell>
        <mxCell id="SfMgs8U5jTcHFlzyxPl0-28" value="shipment&lt;br&gt;order components" style="rounded=1;whiteSpace=wrap;html=1;" vertex="1" parent="1">
          <mxGeometry x="1310" y="80" width="120" height="60" as="geometry" />
        </mxCell>
        <mxCell id="SfMgs8U5jTcHFlzyxPl0-29" value="shipment&lt;br&gt;send components&lt;br&gt;to kontragent" style="rounded=1;whiteSpace=wrap;html=1;" vertex="1" parent="1">
          <mxGeometry x="1310" y="140" width="120" height="60" as="geometry" />
        </mxCell>
        <mxCell id="SfMgs8U5jTcHFlzyxPl0-30" value="shipment&lt;br&gt;reciving product" style="rounded=1;whiteSpace=wrap;html=1;" vertex="1" parent="1">
          <mxGeometry x="1310" y="200" width="120" height="60" as="geometry" />
        </mxCell>
        <mxCell id="SfMgs8U5jTcHFlzyxPl0-31" value="shipment&lt;br&gt;send to client" style="rounded=1;whiteSpace=wrap;html=1;" vertex="1" parent="1">
          <mxGeometry x="1310" y="260" width="120" height="60" as="geometry" />
        </mxCell>
        <mxCell id="SfMgs8U5jTcHFlzyxPl0-32" value="invoice&lt;br&gt;prepayment 50%" style="rounded=1;whiteSpace=wrap;html=1;" vertex="1" parent="1">
          <mxGeometry x="1030" y="80" width="110" height="50" as="geometry" />
        </mxCell>
        <mxCell id="SfMgs8U5jTcHFlzyxPl0-66" style="edgeStyle=orthogonalEdgeStyle;rounded=0;orthogonalLoop=1;jettySize=auto;html=1;entryX=1;entryY=0.5;entryDx=0;entryDy=0;" edge="1" parent="1" source="SfMgs8U5jTcHFlzyxPl0-36" target="SfMgs8U5jTcHFlzyxPl0-32">
          <mxGeometry relative="1" as="geometry" />
        </mxCell>
        <mxCell id="SfMgs8U5jTcHFlzyxPl0-36" value="document&lt;br&gt;related ~ invoice" style="rounded=1;whiteSpace=wrap;html=1;" vertex="1" parent="1">
          <mxGeometry x="1220" y="240" width="90" height="40" as="geometry" />
        </mxCell>
        <mxCell id="SfMgs8U5jTcHFlzyxPl0-37" value="storage&lt;br&gt;articles" style="rounded=1;whiteSpace=wrap;html=1;" vertex="1" parent="1">
          <mxGeometry x="690" y="430" width="120" height="60" as="geometry" />
        </mxCell>
        <mxCell id="SfMgs8U5jTcHFlzyxPl0-38" value="single log" style="rounded=1;whiteSpace=wrap;html=1;" vertex="1" parent="1">
          <mxGeometry x="750" y="490" width="120" height="60" as="geometry" />
        </mxCell>
        <mxCell id="SfMgs8U5jTcHFlzyxPl0-39" value="history" style="rounded=1;whiteSpace=wrap;html=1;" vertex="1" parent="1">
          <mxGeometry x="630" y="490" width="120" height="60" as="geometry" />
        </mxCell>
        <mxCell id="SfMgs8U5jTcHFlzyxPl0-41" style="edgeStyle=orthogonalEdgeStyle;rounded=0;orthogonalLoop=1;jettySize=auto;html=1;entryX=1;entryY=0.5;entryDx=0;entryDy=0;" edge="1" parent="1" source="SfMgs8U5jTcHFlzyxPl0-15" target="SfMgs8U5jTcHFlzyxPl0-38">
          <mxGeometry relative="1" as="geometry" />
        </mxCell>
        <mxCell id="SfMgs8U5jTcHFlzyxPl0-42" style="edgeStyle=orthogonalEdgeStyle;rounded=0;orthogonalLoop=1;jettySize=auto;html=1;entryX=0;entryY=0.5;entryDx=0;entryDy=0;" edge="1" parent="1" source="SfMgs8U5jTcHFlzyxPl0-15" target="SfMgs8U5jTcHFlzyxPl0-39">
          <mxGeometry relative="1" as="geometry" />
        </mxCell>
        <mxCell id="SfMgs8U5jTcHFlzyxPl0-43" style="edgeStyle=orthogonalEdgeStyle;rounded=0;orthogonalLoop=1;jettySize=auto;html=1;entryX=0.167;entryY=-0.05;entryDx=0;entryDy=0;entryPerimeter=0;exitX=0;exitY=0.5;exitDx=0;exitDy=0;" edge="1" parent="1" source="SfMgs8U5jTcHFlzyxPl0-37" target="SfMgs8U5jTcHFlzyxPl0-39">
          <mxGeometry relative="1" as="geometry" />
        </mxCell>
        <mxCell id="SfMgs8U5jTcHFlzyxPl0-45" value="Articles" style="swimlane;fontStyle=0;childLayout=stackLayout;horizontal=1;startSize=30;horizontalStack=0;resizeParent=1;resizeParentMax=0;resizeLast=0;collapsible=1;marginBottom=0;whiteSpace=wrap;html=1;" vertex="1" parent="1">
          <mxGeometry x="360" y="480" width="140" height="120" as="geometry" />
        </mxCell>
        <mxCell id="SfMgs8U5jTcHFlzyxPl0-46" value="article 1" style="text;strokeColor=none;fillColor=none;align=left;verticalAlign=middle;spacingLeft=4;spacingRight=4;overflow=hidden;points=[[0,0.5],[1,0.5]];portConstraint=eastwest;rotatable=0;whiteSpace=wrap;html=1;" vertex="1" parent="SfMgs8U5jTcHFlzyxPl0-45">
          <mxGeometry y="30" width="140" height="30" as="geometry" />
        </mxCell>
        <mxCell id="SfMgs8U5jTcHFlzyxPl0-47" value="article 2" style="text;strokeColor=none;fillColor=none;align=left;verticalAlign=middle;spacingLeft=4;spacingRight=4;overflow=hidden;points=[[0,0.5],[1,0.5]];portConstraint=eastwest;rotatable=0;whiteSpace=wrap;html=1;" vertex="1" parent="SfMgs8U5jTcHFlzyxPl0-45">
          <mxGeometry y="60" width="140" height="30" as="geometry" />
        </mxCell>
        <mxCell id="SfMgs8U5jTcHFlzyxPl0-48" value="article 3" style="text;strokeColor=none;fillColor=none;align=left;verticalAlign=middle;spacingLeft=4;spacingRight=4;overflow=hidden;points=[[0,0.5],[1,0.5]];portConstraint=eastwest;rotatable=0;whiteSpace=wrap;html=1;" vertex="1" parent="SfMgs8U5jTcHFlzyxPl0-45">
          <mxGeometry y="90" width="140" height="30" as="geometry" />
        </mxCell>
        <mxCell id="SfMgs8U5jTcHFlzyxPl0-49" value="shipment" style="rounded=0;whiteSpace=wrap;html=1;" vertex="1" parent="1">
          <mxGeometry x="1030" y="340" width="400" height="240" as="geometry" />
        </mxCell>
        <mxCell id="SfMgs8U5jTcHFlzyxPl0-58" value="document&lt;br&gt;payment" style="rounded=1;whiteSpace=wrap;html=1;" vertex="1" parent="1">
          <mxGeometry x="1340" y="340" width="90" height="40" as="geometry" />
        </mxCell>
        <mxCell id="SfMgs8U5jTcHFlzyxPl0-59" value="Articles" style="swimlane;fontStyle=0;childLayout=stackLayout;horizontal=1;startSize=30;horizontalStack=0;resizeParent=1;resizeParentMax=0;resizeLast=0;collapsible=1;marginBottom=0;whiteSpace=wrap;html=1;" vertex="1" parent="1">
          <mxGeometry x="1290" y="460" width="140" height="120" as="geometry" />
        </mxCell>
        <mxCell id="SfMgs8U5jTcHFlzyxPl0-60" value="article 1" style="text;strokeColor=none;fillColor=none;align=left;verticalAlign=middle;spacingLeft=4;spacingRight=4;overflow=hidden;points=[[0,0.5],[1,0.5]];portConstraint=eastwest;rotatable=0;whiteSpace=wrap;html=1;" vertex="1" parent="SfMgs8U5jTcHFlzyxPl0-59">
          <mxGeometry y="30" width="140" height="30" as="geometry" />
        </mxCell>
        <mxCell id="SfMgs8U5jTcHFlzyxPl0-61" value="article 2" style="text;strokeColor=none;fillColor=none;align=left;verticalAlign=middle;spacingLeft=4;spacingRight=4;overflow=hidden;points=[[0,0.5],[1,0.5]];portConstraint=eastwest;rotatable=0;whiteSpace=wrap;html=1;" vertex="1" parent="SfMgs8U5jTcHFlzyxPl0-59">
          <mxGeometry y="60" width="140" height="30" as="geometry" />
        </mxCell>
        <mxCell id="SfMgs8U5jTcHFlzyxPl0-62" value="article 3" style="text;strokeColor=none;fillColor=none;align=left;verticalAlign=middle;spacingLeft=4;spacingRight=4;overflow=hidden;points=[[0,0.5],[1,0.5]];portConstraint=eastwest;rotatable=0;whiteSpace=wrap;html=1;" vertex="1" parent="SfMgs8U5jTcHFlzyxPl0-59">
          <mxGeometry y="90" width="140" height="30" as="geometry" />
        </mxCell>
        <mxCell id="SfMgs8U5jTcHFlzyxPl0-63" value="document&lt;br&gt;related ~ demand" style="rounded=1;whiteSpace=wrap;html=1;" vertex="1" parent="1">
          <mxGeometry x="1220" y="280" width="90" height="40" as="geometry" />
        </mxCell>
        <mxCell id="SfMgs8U5jTcHFlzyxPl0-65" value="final invoice&lt;br&gt;50%" style="rounded=1;whiteSpace=wrap;html=1;" vertex="1" parent="1">
          <mxGeometry x="1030" y="130" width="110" height="50" as="geometry" />
        </mxCell>
        <mxCell id="SfMgs8U5jTcHFlzyxPl0-67" value="document&lt;br&gt;mito" style="rounded=1;whiteSpace=wrap;html=1;" vertex="1" parent="1">
          <mxGeometry x="1340" y="380" width="90" height="40" as="geometry" />
        </mxCell>
        <mxCell id="SfMgs8U5jTcHFlzyxPl0-68" value="invoice" style="rounded=1;whiteSpace=wrap;html=1;" vertex="1" parent="1">
          <mxGeometry x="1030" y="340" width="110" height="50" as="geometry" />
        </mxCell>
        <mxCell id="SfMgs8U5jTcHFlzyxPl0-73" style="edgeStyle=orthogonalEdgeStyle;rounded=0;orthogonalLoop=1;jettySize=auto;html=1;entryX=1;entryY=0.5;entryDx=0;entryDy=0;" edge="1" parent="1" source="SfMgs8U5jTcHFlzyxPl0-72" target="SfMgs8U5jTcHFlzyxPl0-68">
          <mxGeometry relative="1" as="geometry" />
        </mxCell>
        <mxCell id="SfMgs8U5jTcHFlzyxPl0-72" value="document&lt;br&gt;related ~ invoice" style="rounded=1;whiteSpace=wrap;html=1;" vertex="1" parent="1">
          <mxGeometry x="1340" y="420" width="90" height="40" as="geometry" />
        </mxCell>
        <mxCell id="SfMgs8U5jTcHFlzyxPl0-74" value="invoice" style="rounded=0;whiteSpace=wrap;html=1;" vertex="1" parent="1">
          <mxGeometry x="1030" y="600" width="400" height="240" as="geometry" />
        </mxCell>
        <mxCell id="SfMgs8U5jTcHFlzyxPl0-75" value="document" style="rounded=1;whiteSpace=wrap;html=1;" vertex="1" parent="1">
          <mxGeometry x="1340" y="600" width="90" height="40" as="geometry" />
        </mxCell>
        <mxCell id="SfMgs8U5jTcHFlzyxPl0-76" value="document" style="rounded=1;whiteSpace=wrap;html=1;" vertex="1" parent="1">
          <mxGeometry x="1340" y="640" width="90" height="40" as="geometry" />
        </mxCell>
        <mxCell id="SfMgs8U5jTcHFlzyxPl0-77" value="document" style="rounded=1;whiteSpace=wrap;html=1;" vertex="1" parent="1">
          <mxGeometry x="1340" y="680" width="90" height="40" as="geometry" />
        </mxCell>
        <mxCell id="SfMgs8U5jTcHFlzyxPl0-78" value="document" style="rounded=1;whiteSpace=wrap;html=1;" vertex="1" parent="1">
          <mxGeometry x="1340" y="720" width="90" height="40" as="geometry" />
        </mxCell>
      </root>
    </mxGraphModel>
  </diagram>
</mxfile>
